<?xml version="1.0" encoding="utf-8"?>
<!-- Generator: Adobe Illustrator 19.0.0, SVG Export Plug-In . SVG Version: 6.00 Build 0)  -->
<svg version="1.1" id="图层_1" xmlns="http://www.w3.org/2000/svg" xmlns:xlink="http://www.w3.org/1999/xlink" x="0px" y="0px"
	 viewBox="0 0 310 310" style="enable-background:new 0 0 310 310;" xml:space="preserve">
<style type="text/css">
	.st0{fill:#FFFFFF;}
	.st1{fill:#888888;}
</style>
<circle id="XMLID_3_" class="st0" cx="155" cy="155" r="155"/>
<g id="XMLID_4_">
	<path id="XMLID_15_" class="st1" d="M73,122.6h41.7c4.4,0,8-3.6,8-8V73c0-4.4-3.6-8-8-8H73c-4.4,0-8,3.6-8,8v41.7
		C65,119,68.6,122.6,73,122.6z M79.4,87.4c0-4.4,3.6-8,8-8h12.9c4.4,0,8,3.6,8,8v12.9c0,4.4-3.6,8-8,8H87.4c-4.4,0-8-3.6-8-8V87.4z"
		/>
	<path id="XMLID_24_" class="st1" d="M114.4,187.4H73.2c-4.5,0-8.2,3.7-8.2,8.2v41.3c0,4.5,3.7,8.2,8.2,8.2h41.3
		c4.5,0,8.2-3.7,8.2-8.2v-41.3C122.6,191.1,118.9,187.4,114.4,187.4z M108.2,222.4c0,4.5-3.7,8.2-8.2,8.2H87.6
		c-4.5,0-8.2-3.7-8.2-8.2V210c0-4.5,3.7-8.2,8.2-8.2H100c4.5,0,8.2,3.7,8.2,8.2V222.4z"/>
	<path id="XMLID_27_" class="st1" d="M236.8,65h-41.3c-4.5,0-8.2,3.7-8.2,8.2v41.3c0,4.5,3.7,8.2,8.2,8.2h41.3
		c4.5,0,8.2-3.7,8.2-8.2V73.2C245,68.7,241.3,65,236.8,65z M230.6,100c0,4.5-3.7,8.2-8.2,8.2H210c-4.5,0-8.2-3.7-8.2-8.2V87.6
		c0-4.5,3.7-8.2,8.2-8.2h12.5c4.5,0,8.2,3.7,8.2,8.2V100z"/>
	<path id="XMLID_28_" class="st1" d="M240,183.5H229c-2.8,0-5,2.3-5,5V219c0,2.8-2.3,5-5,5h-30.4c-2.8,0-5,2.3-5,5V240
		c0,2.8,2.3,5,5,5H224h3.9H240c2.8,0,5-2.3,5-5v-51.4C245,185.8,242.7,183.5,240,183.5z"/>
	<path id="XMLID_29_" class="st1" d="M134.8,154.9v-14.9c0-3.3-2.7-6.1-6.1-6.1s-6.1,2.7-6.1,6.1v14.9c0,3.3,2.7,6.1,6.1,6.1
		S134.8,158.3,134.8,154.9z"/>
	<path id="XMLID_30_" class="st1" d="M181.3,161c3.3,0,6.1-2.7,6.1-6.1v-14.9c0-3.3-2.7-6.1-6.1-6.1s-6.1,2.7-6.1,6.1v14.9
		C175.3,158.3,178,161,181.3,161z"/>
	<path id="XMLID_31_" class="st1" d="M182.4,179.1c-30-15.6-54.1,0.4-55.1,1c-1.1,0.7-1.4,2.2-0.6,3.3c0.5,0.7,1.2,1.1,2,1.1
		c0.5,0,0.9-0.1,1.3-0.4c0.2-0.2,22.7-15,50.2-0.8c1.2,0.6,2.6,0.2,3.2-1C184,181.1,183.5,179.7,182.4,179.1z"/>
	<path id="XMLID_32_" class="st1" d="M198.9,194.8c-0.2-4.3-2.1-13.9-3.2-18.2c-0.1-0.4-0.8-0.4-0.9,0c-0.8,3.6-2.6,12.2-2.6,18.3
		C192.2,199.9,199.1,199.8,198.9,194.8z"/>
	<path id="XMLID_33_" class="st1" d="M209.7,149.2c-0.2-4.3-2.1-13.9-3.2-18.2c-0.1-0.4-0.8-0.4-0.9,0c-0.8,3.6-2.6,12.2-2.6,18.3
		C203,154.3,209.9,154.2,209.7,149.2z"/>
</g>
</svg>
