<?xml version="1.0" encoding="utf-8"?>
<!-- Generator: Adobe Illustrator 19.0.0, SVG Export Plug-In . SVG Version: 6.00 Build 0)  -->
<svg version="1.1" id="图层_1" xmlns="http://www.w3.org/2000/svg" xmlns:xlink="http://www.w3.org/1999/xlink" x="0px" y="0px"
	 viewBox="0 0 66 66" style="enable-background:new 0 0 66 66;" xml:space="preserve">
<style type="text/css">
	.st0{fill:#36bc99;}
</style>
<g id="XMLID_27_">
	<path id="XMLID_29_" class="st0" d="M21.2,49.3c0.9-2.5-1-4.8-3.4-4.5c-1.6,0.2-2.5,1.1-2.8,2.3C13.8,51.5,19.9,52.8,21.2,49.3z"/>
	<path id="XMLID_32_" class="st0" d="M29.4,35.2c-1.5-0.4-4-0.1-5.6-0.1H12.4c-1.7,0-4.1-0.3-5.6,0.1c-0.8,0.2-1.3,1-1.5,1.6v22.4
		c0.3,0.9,0.9,1.5,1.8,1.8h21.9c2.5-0.3,1.9-4,1.9-6.9V42.3C30.9,39.6,31.5,35.8,29.4,35.2z M26.1,56.2h-16v-16c0-0.1,0-0.2,0.1-0.2
		h15.9V56.2z"/>
	<path id="XMLID_35_" class="st0" d="M12.2,30.8h11.7c1.5,0,4.6,0.3,5.7-0.1c1.8-0.8,1.3-4,1.3-6.7V11.8c0-2.6,0.5-6.5-1.7-6.8H7.1
		C6.2,5.3,5.7,5.9,5.4,6.7v22.4C5.8,31.5,9.5,30.8,12.2,30.8z M10.1,10.1c0-0.1,0-0.2,0.1-0.2h15.9V26h-16V10.1z"/>
	<path id="XMLID_36_" class="st0" d="M17.4,14.7c-3.1,0.6-3.3,4.9-0.8,6.2c2.1,1.1,4.9-0.4,4.8-3C21.4,15.8,19.6,14.3,17.4,14.7z"/>
	<path id="XMLID_39_" class="st0" d="M58.9,5H36.8c-2.4,0.4-1.7,4.1-1.7,7.2v11.4c0,2.7-0.6,6.5,1.4,7.1c1.4,0.4,3.9,0.1,5.6,0.1
		h11.4c1.7,0,4.1,0.3,5.6-0.1c0.9-0.2,1.4-1,1.6-1.9V7C60.4,6,59.8,5.3,58.9,5z M55.8,26h-16v-16c0-0.1,0-0.2,0.1-0.2h15.9V26z"/>
	<path id="XMLID_40_" class="st0" d="M47.1,21.2c5.1,0.9,5.2-7.4,0-6.5C43.7,15.4,43.8,20.6,47.1,21.2z"/>
	<path id="XMLID_41_" class="st0" d="M44.7,61h5.3v-5.8h-5.3C44.6,57,44.8,59.1,44.7,61z"/>
	<path id="XMLID_42_" class="st0" d="M55.9,35.2c-0.2,3.1,0,6.6-0.1,9.9h-5v-9.9H40.1c-2.2,0-4.4-0.3-4.9,1.4
		c-0.4,1.4-0.1,4-0.1,5.7v11.5c0,3-0.7,6.7,1.8,7.2h2.9c0-4.8-0.1-9.9,0.1-14.6c1.6,0,3.4-0.1,4.9,0.1v3.6h15.8
		c0-2.2-0.1-4.7,0.1-6.8v-6.2C60.5,35,58.3,35,55.9,35.2z"/>
	<path id="XMLID_56_" class="st0" d="M55.1,61h3.8c1-0.3,1.6-0.9,1.8-2v-3.8c-1.8,0-3.7,0-5.5,0C55,57,55.1,59.1,55.1,61z"/>
</g>
</svg>
