<?xml version="1.0" encoding="utf-8"?>
<!-- Generator: Adobe Illustrator 19.0.0, SVG Export Plug-In . SVG Version: 6.00 Build 0)  -->
<svg version="1.1" id="图层_1" xmlns="http://www.w3.org/2000/svg" xmlns:xlink="http://www.w3.org/1999/xlink" x="0px" y="0px"
	 viewBox="0 0 66 66" style="enable-background:new 0 0 66 66;" xml:space="preserve">
<style type="text/css">
	.st0{fill:#f7a64d;}
</style>
<g id="XMLID_29_">
	<path id="XMLID_30_" class="st0" d="M15,17.8l0.4-0.2c0.3-0.1,0.6-0.3,0.9-0.4c0.5-0.2,1-0.4,1.5-0.7l0.4-0.2l-0.2-0.4
		c-0.9-2.1-0.9-4.3-0.1-6.3c0.8-1.8,2.2-3.2,4-3.8C23.9,5,25.6,5.1,27.2,6c2.5,1.3,3.8,3.6,4,6.7l0,0.5l0.5,0
		c0.8-0.1,1.7-0.2,2.5-0.2h0.5v-0.5C34.5,6.7,30,0.8,23,1.5c-5.4,0.7-9.3,5.4-9.3,11c0,1.7,0.3,3.3,1.1,4.8L15,17.8z"/>
	<path id="XMLID_34_" class="st0" d="M51.5,33.9c0-1.7-1.4-3.2-3.1-3.2c-1.7,0-3.1,1.5-3.1,3.2c0,0.9,0.4,1.8,1,2.4
		c0.5,0.5,1.2,0.8,1.9,0.8c0,0,0.1,0,0.1,0C50.1,37.1,51.5,35.6,51.5,33.9z"/>
	<path id="XMLID_37_" class="st0" d="M60.3,30.8h-1.5c-0.2,0-0.5,0-0.5,0c0-0.1-0.1-0.4-0.2-0.6c-0.3-1.6-0.9-3.2-1.8-4.7
		c-1.7-2.9-4-5.1-7-6.5c-0.2-0.1-0.2-0.1-0.2-0.3c0-0.2,0-0.4,0.1-0.6c0-0.6,0.1-1.1,0.2-1.7c0.3-1.4,0.8-2.9,1.2-4.2
		c0.1-0.5,0.3-1,0.4-1.5c0.2-0.7,0.3-1.5-0.2-2.1c-0.4-0.6-1.2-0.8-2.2-0.6c-4.4,1.3-7.6,3.8-9.7,7.6c0,0-0.1,0,0,0
		c-0.6-0.1-1.2-0.2-1.8-0.3c-0.6-0.1-1.2-0.2-1.8-0.3c-6.7-0.7-12.5,0.4-17.8,3.4c-4.6,2.6-7.6,5.8-9.3,10c0,0.2-0.1,0.3-0.2,0.5
		C8,29,8,29,7.9,29c-0.5-0.3-1-0.6-1.4-1c-1.2-1-1.4-2.4-1.3-3.5c0.1-1.1,0.7-1.9,1.4-2.3c0.2-0.1,0.3-0.2,0.5-0.3
		c0.7-0.6,0.9-1.4,0.5-2.3c-0.5-0.8-1.4-1.2-2.1-0.9c-0.5,0.2-0.9,0.4-1.4,0.8c-1.6,1.2-2.6,3.2-2.6,5.5c-0.1,2.3,0.8,4.5,2.5,5.9
		c0.9,0.7,1.9,1.4,2.8,2c0,0.9-0.1,1.8-0.1,2.7c-0.1,1.1-0.1,2.2-0.2,3.3c-0.1,2.6,0.6,5.2,1.9,7.7c1.3,2.4,3.1,4.7,5.5,6.7
		c0.3,0.2,0.3,0.4,0.2,0.7c-0.3,0.6-0.5,1.2-0.7,1.8c-0.1,0.3-0.2,0.6-0.3,0.8c-1,2.6,0.1,5,2.5,6c1.5,0.6,2.9,1.2,4.5,1.8
		c2.8,1,4.1-0.1,5.4-3.4c0.2-0.6,0.5-1.2,0.7-1.8c0,0,0,0,0,0c3.9,1,7.9,0.7,11.3,0.3c0.4,0,0.4,0.1,0.5,0.3c0,0.2,0.1,0.3,0.2,0.5
		c0.1,0.1,0.1,0.3,0.1,0.4c0.5,2.1,1.7,3.6,3.1,4c0.7,0.2,1.6,0.3,4.4-0.8c0.8-0.3,1.5-0.6,2.2-0.9c2.7-1,3.7-3.3,2.7-6.1
		c-0.1-0.3-0.2-0.6-0.3-0.9c-0.1-0.2-0.1-0.4-0.2-0.6c0,0,0,0,0,0c0.1-0.1,0.2-0.1,0.3-0.2c3.1-1.9,5.4-4.5,6.8-7.7
		c0.5-1,0.9-1.2,1.7-1.1c0.5,0.1,1,0.1,1.5,0c2.1-0.2,3.9-1.4,3.9-4.1v-7C64.5,32.3,62.5,30.9,60.3,30.8z M46.8,56.7
		c0.2,0.4,0.4,0.9,0.5,1.5c0.1,0.3,0.1,0.5-0.3,0.7c-1.2,0.5-2.5,1.1-4.2,1.7c-0.3,0.1-0.5,0.1-0.7-0.3c-0.2-0.6-0.4-1.1-0.6-1.7
		L41.4,58c-0.7-2-1.6-2.8-3.5-2.8c-0.2,0-0.4,0-0.6,0c-2.5,0.2-5,0.2-7.4,0.2c-0.7,0-1.5-0.1-2.2-0.3c-0.5-0.1-1-0.2-1.4-0.2
		c-1.5-0.2-2.6,0.4-3.2,1.8c-0.4,1-0.8,2-1.3,3.2c-0.1,0.3-0.2,0.5-0.4,0.6c-0.1,0.1-0.4,0-0.7-0.1c-0.4-0.2-0.9-0.4-1.3-0.5
		c-0.8-0.3-1.6-0.6-2.3-0.9c-0.6-0.3-0.7-0.4-0.4-1.2c0.2-0.5,0.3-0.9,0.5-1.4c0.2-0.5,0.4-1,0.5-1.4c0.7-1.9,0.3-3.3-1.1-4.6
		c-1.9-1.7-3.3-3.2-4.4-5c-1.5-2.5-2.1-5.3-1.9-8.6c0.2-3.8,1.2-7,2.9-9.6c1-1.5,2.3-2.8,4.3-4.1c4.9-3.4,10.4-4.7,16.9-4.2
		c1.6,0.1,3,0.4,4.6,0.7l0.4,0.1c1.2,0.2,1.9-0.2,2.5-1.3c1.1-2.4,2.6-4.1,4.5-5.3c0.1,0,0.1-0.1,0.2-0.1c-0.1,0.3-0.1,0.6-0.2,0.8
		c-0.5,1.8-0.8,3.8-0.8,5.9c0,1.3,0.4,1.9,1.5,2.4c4.2,1.7,6.7,4.8,7.6,9.5c0.4,1.8,1.5,2.9,3.2,3c0.8,0.1,1.6,0.1,2.4,0.1
		c0.6,0,0.7,0,0.7,0.7v6.4c0,0.6-0.1,0.7-0.6,0.7h-1.9c-1.8,0-3.1,0.8-3.9,2.5c-1.1,2.3-2.4,4.1-4,5.5c-0.5,0.4-1,0.8-1.6,1.1
		l-0.5,0.3C46.5,52.9,46,54.3,46.8,56.7z"/>
</g>
</svg>
