<?xml version="1.0" encoding="utf-8"?>
<!-- Generator: Adobe Illustrator 19.0.0, SVG Export Plug-In . SVG Version: 6.00 Build 0)  -->
<svg version="1.1" id="图层_1" xmlns="http://www.w3.org/2000/svg" xmlns:xlink="http://www.w3.org/1999/xlink" x="0px" y="0px"
	 viewBox="0 0 60 60" style="enable-background:new 0 0 60 60;" xml:space="preserve">
<style type="text/css">
	.st0{fill:#36bc99;}
	.st1{fill-rule:evenodd;clip-rule:evenodd;fill:#36bc99;}
</style>
<g id="XMLID_370_">
	<g id="XMLID_60_">
		<g id="XMLID_62_">
			<rect id="XMLID_67_" x="53" y="50.2" class="st0" width="5.1" height="5.8"/>
			<rect id="XMLID_66_" x="32.6" y="50.2" class="st0" width="5.1" height="5.8"/>
			<path id="XMLID_63_" class="st0" d="M58.1,9.8V4H32.6v5.8h10.2v5.8h-5.1h-5.1v28.9h5.1v5.8h5.1v-5.8h5.1v5.8H53v-5.8h5.1V21.3
				v-5.8H47.9V9.8H58.1z M53,21.3v23.1h-5.1V27.1h-5.1v17.3h-5.1V21.3H53z"/>
		</g>
		<polygon id="XMLID_61_" class="st1" points="27.4,27.1 27.4,32.9 22.3,32.9 22.3,27.1 17.2,27.1 17.2,56 12.1,56 12.1,50.2 
			7,50.2 7,44.4 12.1,44.4 12.1,27.1 1.9,27.1 1.9,21.3 12.1,21.3 12.1,15.6 17.2,15.6 17.2,9.8 7,9.8 7,4 22.3,4 22.3,9.8 
			22.3,15.6 17.2,15.6 17.2,21.3 27.4,21.3 27.4,27.1 27.4,27.1 		"/>
	</g>
</g>
</svg>
