<?xml version="1.0" encoding="utf-8"?>
<!-- Generator: Adobe Illustrator 19.0.0, SVG Export Plug-In . SVG Version: 6.00 Build 0)  -->
<svg version="1.1" id="图层_1" xmlns="http://www.w3.org/2000/svg" xmlns:xlink="http://www.w3.org/1999/xlink" x="0px" y="0px"
	 viewBox="0 0 40 40" style="enable-background:new 0 0 40 40;" xml:space="preserve">
<style type="text/css">
	.st0{fill:#f75965;}
</style>
<path id="XMLID_66_" class="st0" d="M20,0C9,0,0,9,0,20c0,11,9,20,20,20s20-9,20-20C40,9,31,0,20,0z M20.5,27.8
	c0,0.3-0.3,0.6-0.6,0.6c-0.3,0-0.6-0.3-0.6-0.6v-8.1l-3.8,3.8c-0.2,0.2-0.6,0.2-0.9,0c-0.2-0.2-0.2-0.6,0-0.9l4.8-4.8l0,0l0,0
	c0,0,0,0,0.1,0l0,0c0,0,0.1,0,0.1,0l0.1,0l0.1,0h0h0h0h0l0,0l0.1,0c0,0,0.1,0,0.1,0h0c0,0,0,0,0.1,0.1l0,0l0,0l4.8,4.8
	c0.2,0.2,0.2,0.6,0,0.9c-0.2,0.2-0.6,0.2-0.9,0l-3.8-3.8V27.8z M31.4,26.9L31.4,26.9c-0.8,0.8-1.9,1.4-3.2,1.5c-0.1,0-0.2,0-0.2,0
	h-0.3h0h-4.4h0c-0.6,0-1-0.5-1-1c0-0.5,0.4-1,1-1h0h4.5c0.9,0,1.7-0.4,2.2-0.9c0.6-0.6,0.9-1.4,0.9-2.3c0-0.8-0.3-1.5-0.7-2.1
	c-0.5-0.6-1.1-1-1.9-1.1c-0.5-0.1-0.8-0.5-0.8-1v0c0-1.9-0.8-3.6-2-4.9c-1.2-1.2-3-2-4.9-2c-1.4,0-2.7,0.4-3.8,1.1
	c-1.1,0.8-2,1.8-2.5,3c-0.2,0.4-0.5,0.6-0.9,0.6c-1.2,0.1-2.3,0.6-3.1,1.5c-0.8,0.8-1.3,2-1.3,3.2c0,1.3,0.5,2.5,1.4,3.3h0
	c0.9,0.9,2,1.4,3.3,1.4H14h0h2.6h0.3c0.6,0,1,0.5,1,1c0,0.5-0.5,1-1,1h-0.3h-2.6h0h-0.4c-1.9,0-3.5-0.7-4.8-2c-1.2-1.2-2-2.9-2-4.8
	c0-1.8,0.7-3.4,1.8-4.6c1-1.1,2.4-1.8,3.9-2c0.7-1.4,1.8-2.5,3-3.4c1.4-0.9,3.1-1.5,4.9-1.5c2.4,0,4.7,1,6.3,2.6
	c1.4,1.4,2.4,3.4,2.6,5.5c0.9,0.3,1.7,0.9,2.3,1.6c0.8,0.9,1.2,2.1,1.2,3.3C32.9,24.6,32.3,25.9,31.4,26.9z"/>
</svg>
