<?xml version="1.0" encoding="utf-8"?>
<!-- Generator: Adobe Illustrator 19.0.0, SVG Export Plug-In . SVG Version: 6.00 Build 0)  -->
<svg version="1.1" id="图层_1" xmlns="http://www.w3.org/2000/svg" xmlns:xlink="http://www.w3.org/1999/xlink" x="0px" y="0px"
	 viewBox="0 0 40 40" style="enable-background:new 0 0 40 40;" xml:space="preserve">
<style type="text/css">
	.st0{fill:#f7a64d;}
</style>
<g id="XMLID_28_">
	<path id="XMLID_92_" class="st0" d="M20,0C9,0,0,9,0,20c0,11,9,20,20,20s20-9,20-20C40,9,31,0,20,0z M18.6,18.8v2.4h-2.2v-2.4h-2.2
		v11.8h-2.2v-2.4H9.9v-2.4h2.2v-7.1H7.7v-2.4h4.4v-2.4h2.2v-2.4H9.9V9.4h6.5v2.4v2.4h-2.2v2.4h4.4V18.8z M23,30.6h-2.2v-2.4H23V30.6
		z M31.7,11.7h-4.4v2.4h4.4v2.4v9.5h-2.2v2.4h2.2v2.4h-2.2v-2.4h-2.2v-2.4h-2.2v2.4H23v-2.4h-2.2V14.1H23h2.2v-2.4h-4.4V9.4h10.9
		V11.7z"/>
	<polygon id="XMLID_96_" class="st0" points="23,25.9 25.2,25.9 25.2,18.8 27.3,18.8 27.3,25.9 29.5,25.9 29.5,16.5 23,16.5 	"/>
</g>
</svg>
