<?xml version="1.0" encoding="utf-8"?>
<!-- Generator: Adobe Illustrator 19.0.0, SVG Export Plug-In . SVG Version: 6.00 Build 0)  -->
<svg version="1.1" id="图层_1" xmlns="http://www.w3.org/2000/svg" xmlns:xlink="http://www.w3.org/1999/xlink" x="0px" y="0px"
	 viewBox="0 0 40 40" style="enable-background:new 0 0 40 40;" xml:space="preserve">
<style type="text/css">
	.st0{fill:#36bc99;}
</style>
<path id="XMLID_30_" class="st0" d="M20,0C9,0,0,9,0,20c0,11,9,20,20,20s20-9,20-20C40,9,31,0,20,0z M17.9,8.4
	C18.4,8,19.1,7.8,20,7.8s1.6,0.2,2.1,0.6c0.5,0.4,0.7,1,0.7,1.7c0,0.7-0.2,1.3-0.7,1.7c-0.5,0.4-1.2,0.6-2.1,0.6s-1.6-0.2-2.1-0.6
	c-0.5-0.4-0.8-1-0.8-1.7S17.4,8.9,17.9,8.4z M24.5,32.2h-9v-1.5c1,0,1.6-0.2,1.9-0.5c0.3-0.3,0.4-1,0.4-2.3v-8.3
	c0-1.2-0.1-2-0.4-2.3c-0.3-0.3-0.9-0.5-1.9-0.5v-1.5h0.6c1.2,0,2.3,0,3.4-0.1c1.1-0.1,2.1-0.2,3.2-0.4v13.1c0,1.3,0.1,2,0.4,2.3
	c0.2,0.3,0.7,0.4,1.5,0.5V32.2z"/>
</svg>
